<mxfile host="app.diagrams.net" modified="2023-12-16T20:21:36.539Z" agent="Mozilla/5.0 (Macintosh; Intel Mac OS X 10_15_7) AppleWebKit/537.36 (KHTML, like Gecko) Chrome/120.0.0.0 Safari/537.36" etag="uODo-v75kf2C0vlh-DT9" version="22.1.11" type="device">
  <diagram name="Page-1" id="YGq4NWomw03N4c-hj3Cz">
    <mxGraphModel dx="1302" dy="803" grid="1" gridSize="10" guides="1" tooltips="1" connect="1" arrows="1" fold="1" page="1" pageScale="1" pageWidth="827" pageHeight="1169" math="0" shadow="0">
      <root>
        <mxCell id="0" />
        <mxCell id="1" parent="0" />
        <mxCell id="pF830BbptEh1_A7NPg4U-5" value="scenario-callback" style="swimlane;whiteSpace=wrap;html=1;" vertex="1" parent="1">
          <mxGeometry x="40" y="180" width="280" height="210" as="geometry" />
        </mxCell>
        <mxCell id="pF830BbptEh1_A7NPg4U-13" value="" style="edgeStyle=orthogonalEdgeStyle;rounded=0;orthogonalLoop=1;jettySize=auto;html=1;" edge="1" parent="pF830BbptEh1_A7NPg4U-5" source="pF830BbptEh1_A7NPg4U-6" target="pF830BbptEh1_A7NPg4U-12">
          <mxGeometry relative="1" as="geometry" />
        </mxCell>
        <mxCell id="pF830BbptEh1_A7NPg4U-6" value="" style="ellipse;whiteSpace=wrap;html=1;aspect=fixed;" vertex="1" parent="pF830BbptEh1_A7NPg4U-5">
          <mxGeometry x="130" y="34" width="20" height="20" as="geometry" />
        </mxCell>
        <mxCell id="pF830BbptEh1_A7NPg4U-19" value="" style="edgeStyle=orthogonalEdgeStyle;rounded=0;orthogonalLoop=1;jettySize=auto;html=1;" edge="1" parent="pF830BbptEh1_A7NPg4U-5" source="pF830BbptEh1_A7NPg4U-12" target="pF830BbptEh1_A7NPg4U-18">
          <mxGeometry relative="1" as="geometry" />
        </mxCell>
        <mxCell id="pF830BbptEh1_A7NPg4U-20" value="Callback throws/rejects" style="edgeLabel;html=1;align=center;verticalAlign=middle;resizable=0;points=[];" vertex="1" connectable="0" parent="pF830BbptEh1_A7NPg4U-19">
          <mxGeometry x="-0.5027" y="-3" relative="1" as="geometry">
            <mxPoint x="-23" y="-9" as="offset" />
          </mxGeometry>
        </mxCell>
        <mxCell id="pF830BbptEh1_A7NPg4U-26" value="" style="edgeStyle=orthogonalEdgeStyle;rounded=0;orthogonalLoop=1;jettySize=auto;html=1;" edge="1" parent="pF830BbptEh1_A7NPg4U-5" source="pF830BbptEh1_A7NPg4U-12" target="pF830BbptEh1_A7NPg4U-27">
          <mxGeometry relative="1" as="geometry">
            <mxPoint x="210" y="170" as="targetPoint" />
          </mxGeometry>
        </mxCell>
        <mxCell id="pF830BbptEh1_A7NPg4U-63" value="Callback returns value" style="edgeLabel;html=1;align=center;verticalAlign=middle;resizable=0;points=[];" vertex="1" connectable="0" parent="pF830BbptEh1_A7NPg4U-26">
          <mxGeometry x="-0.7034" y="1" relative="1" as="geometry">
            <mxPoint x="36" y="-10" as="offset" />
          </mxGeometry>
        </mxCell>
        <mxCell id="pF830BbptEh1_A7NPg4U-12" value="" style="rhombus;whiteSpace=wrap;html=1;" vertex="1" parent="pF830BbptEh1_A7NPg4U-5">
          <mxGeometry x="122" y="100" width="36" height="36" as="geometry" />
        </mxCell>
        <mxCell id="pF830BbptEh1_A7NPg4U-14" value="" style="group" vertex="1" connectable="0" parent="pF830BbptEh1_A7NPg4U-5">
          <mxGeometry x="140" y="70" width="75.59" height="20" as="geometry" />
        </mxCell>
        <mxCell id="pF830BbptEh1_A7NPg4U-15" value="" style="endArrow=none;dashed=1;html=1;dashPattern=1 3;strokeWidth=2;rounded=0;fillColor=#1ba1e2;strokeColor=#006EAF;" edge="1" parent="pF830BbptEh1_A7NPg4U-14" target="pF830BbptEh1_A7NPg4U-17">
          <mxGeometry width="50" height="50" relative="1" as="geometry">
            <mxPoint y="7" as="sourcePoint" />
            <mxPoint x="10.408534998698883" y="25.200000000000045" as="targetPoint" />
          </mxGeometry>
        </mxCell>
        <mxCell id="pF830BbptEh1_A7NPg4U-16" value="started" style="edgeLabel;html=1;align=center;verticalAlign=middle;resizable=0;points=[];fontSize=12;fontColor=#006EAF;" vertex="1" connectable="0" parent="pF830BbptEh1_A7NPg4U-15">
          <mxGeometry x="0.2113" relative="1" as="geometry">
            <mxPoint x="-4" y="-9" as="offset" />
          </mxGeometry>
        </mxCell>
        <mxCell id="pF830BbptEh1_A7NPg4U-17" value="" style="sketch=0;outlineConnect=0;fontColor=#ffffff;fillColor=#006EAF;strokeColor=#006EAF;dashed=0;verticalLabelPosition=bottom;verticalAlign=top;align=center;html=1;fontSize=12;fontStyle=0;aspect=fixed;pointerEvents=1;shape=mxgraph.aws4.event;" vertex="1" parent="pF830BbptEh1_A7NPg4U-14">
          <mxGeometry x="49.59" y="-6" width="26" height="26" as="geometry" />
        </mxCell>
        <mxCell id="pF830BbptEh1_A7NPg4U-18" value="" style="ellipse;whiteSpace=wrap;html=1;" vertex="1" parent="pF830BbptEh1_A7NPg4U-5">
          <mxGeometry x="20" y="170" width="20" height="20" as="geometry" />
        </mxCell>
        <mxCell id="pF830BbptEh1_A7NPg4U-27" value="" style="ellipse;whiteSpace=wrap;html=1;" vertex="1" parent="pF830BbptEh1_A7NPg4U-5">
          <mxGeometry x="240" y="170" width="20" height="20" as="geometry" />
        </mxCell>
        <mxCell id="pF830BbptEh1_A7NPg4U-28" value="" style="group" vertex="1" connectable="0" parent="pF830BbptEh1_A7NPg4U-5">
          <mxGeometry x="30" y="140" width="70" height="20" as="geometry" />
        </mxCell>
        <mxCell id="pF830BbptEh1_A7NPg4U-22" value="" style="endArrow=none;dashed=1;html=1;dashPattern=1 3;strokeWidth=2;rounded=0;fillColor=#1ba1e2;strokeColor=#006EAF;" edge="1" parent="pF830BbptEh1_A7NPg4U-28" target="pF830BbptEh1_A7NPg4U-24">
          <mxGeometry width="50" height="50" relative="1" as="geometry">
            <mxPoint y="9.710000000000008" as="sourcePoint" />
            <mxPoint x="129" y="9.710000000000008" as="targetPoint" />
          </mxGeometry>
        </mxCell>
        <mxCell id="pF830BbptEh1_A7NPg4U-23" value="rejected" style="edgeLabel;html=1;align=left;verticalAlign=middle;resizable=0;points=[];fontSize=12;fontColor=#006EAF;rotation=0;" vertex="1" connectable="0" parent="pF830BbptEh1_A7NPg4U-22">
          <mxGeometry x="0.2113" relative="1" as="geometry">
            <mxPoint x="-26" y="-12" as="offset" />
          </mxGeometry>
        </mxCell>
        <mxCell id="pF830BbptEh1_A7NPg4U-24" value="" style="sketch=0;outlineConnect=0;fontColor=#ffffff;fillColor=#006EAF;strokeColor=#006EAF;dashed=0;verticalLabelPosition=bottom;verticalAlign=top;align=center;html=1;fontSize=12;fontStyle=0;aspect=fixed;pointerEvents=1;shape=mxgraph.aws4.event;" vertex="1" parent="pF830BbptEh1_A7NPg4U-28">
          <mxGeometry x="50" width="20" height="20" as="geometry" />
        </mxCell>
        <mxCell id="pF830BbptEh1_A7NPg4U-33" value="" style="group" vertex="1" connectable="0" parent="pF830BbptEh1_A7NPg4U-5">
          <mxGeometry x="180" y="140.2" width="70" height="18.80000000000001" as="geometry" />
        </mxCell>
        <mxCell id="pF830BbptEh1_A7NPg4U-30" value="" style="sketch=0;outlineConnect=0;fontColor=#ffffff;fillColor=#006EAF;strokeColor=#006EAF;dashed=0;verticalLabelPosition=bottom;verticalAlign=top;align=center;html=1;fontSize=12;fontStyle=0;aspect=fixed;pointerEvents=1;shape=mxgraph.aws4.event;" vertex="1" parent="pF830BbptEh1_A7NPg4U-33">
          <mxGeometry width="18.799999999999997" height="18.799999999999997" as="geometry" />
        </mxCell>
        <mxCell id="pF830BbptEh1_A7NPg4U-31" value="" style="endArrow=none;dashed=1;html=1;dashPattern=1 3;strokeWidth=2;rounded=0;fillColor=#1ba1e2;strokeColor=#006EAF;" edge="1" parent="pF830BbptEh1_A7NPg4U-33" target="pF830BbptEh1_A7NPg4U-30">
          <mxGeometry width="50" height="50" relative="1" as="geometry">
            <mxPoint x="70" y="8.510000000000048" as="sourcePoint" />
            <mxPoint x="150.83999999999997" y="8.510000000000048" as="targetPoint" />
          </mxGeometry>
        </mxCell>
        <mxCell id="pF830BbptEh1_A7NPg4U-32" value="fulfilled" style="edgeLabel;html=1;align=right;verticalAlign=middle;resizable=0;points=[];fontSize=12;fontColor=#006EAF;rotation=0;" vertex="1" connectable="0" parent="pF830BbptEh1_A7NPg4U-31">
          <mxGeometry x="0.2113" relative="1" as="geometry">
            <mxPoint x="28" y="-12" as="offset" />
          </mxGeometry>
        </mxCell>
        <mxCell id="pF830BbptEh1_A7NPg4U-59" style="edgeStyle=orthogonalEdgeStyle;rounded=0;orthogonalLoop=1;jettySize=auto;html=1;" edge="1" parent="1" source="pF830BbptEh1_A7NPg4U-7" target="pF830BbptEh1_A7NPg4U-5">
          <mxGeometry relative="1" as="geometry" />
        </mxCell>
        <mxCell id="pF830BbptEh1_A7NPg4U-61" style="edgeStyle=orthogonalEdgeStyle;rounded=0;orthogonalLoop=1;jettySize=auto;html=1;entryX=0.5;entryY=0;entryDx=0;entryDy=0;" edge="1" parent="1" target="pF830BbptEh1_A7NPg4U-34">
          <mxGeometry relative="1" as="geometry">
            <mxPoint x="170" y="130" as="targetPoint" />
            <mxPoint x="160" y="120" as="sourcePoint" />
            <Array as="points">
              <mxPoint x="160" y="150" />
              <mxPoint x="490" y="150" />
            </Array>
          </mxGeometry>
        </mxCell>
        <mxCell id="pF830BbptEh1_A7NPg4U-62" style="edgeStyle=orthogonalEdgeStyle;rounded=0;orthogonalLoop=1;jettySize=auto;html=1;entryX=0.5;entryY=0;entryDx=0;entryDy=0;" edge="1" parent="1" source="pF830BbptEh1_A7NPg4U-7" target="pF830BbptEh1_A7NPg4U-55">
          <mxGeometry relative="1" as="geometry">
            <Array as="points">
              <mxPoint x="160" y="150" />
              <mxPoint x="680" y="150" />
            </Array>
          </mxGeometry>
        </mxCell>
        <mxCell id="pF830BbptEh1_A7NPg4U-7" value="" style="rounded=0;whiteSpace=wrap;html=1;" vertex="1" parent="1">
          <mxGeometry x="40" y="50" width="240" height="70" as="geometry" />
        </mxCell>
        <mxCell id="pF830BbptEh1_A7NPg4U-8" value="Infinite scenario - Fork" style="text;html=1;strokeColor=none;fillColor=none;align=center;verticalAlign=middle;whiteSpace=wrap;rounded=0;fontSize=16;" vertex="1" parent="1">
          <mxGeometry x="77.5" y="54" width="165" height="30" as="geometry" />
        </mxCell>
        <mxCell id="pF830BbptEh1_A7NPg4U-9" value="" style="group" vertex="1" connectable="0" parent="1">
          <mxGeometry x="75" y="67" width="190" height="44" as="geometry" />
        </mxCell>
        <mxCell id="pF830BbptEh1_A7NPg4U-10" value="&lt;font style=&quot;font-size: 10px;&quot;&gt;Trigger&lt;/font&gt;" style="rounded=0;whiteSpace=wrap;html=1;dashed=1;" vertex="1" parent="pF830BbptEh1_A7NPg4U-9">
          <mxGeometry x="-20" y="24" width="210" height="20" as="geometry" />
        </mxCell>
        <mxCell id="pF830BbptEh1_A7NPg4U-34" value="scenario-callback" style="swimlane;whiteSpace=wrap;html=1;" vertex="1" parent="1">
          <mxGeometry x="350" y="180" width="280" height="210" as="geometry" />
        </mxCell>
        <mxCell id="pF830BbptEh1_A7NPg4U-35" value="" style="edgeStyle=orthogonalEdgeStyle;rounded=0;orthogonalLoop=1;jettySize=auto;html=1;" edge="1" parent="pF830BbptEh1_A7NPg4U-34" source="pF830BbptEh1_A7NPg4U-36" target="pF830BbptEh1_A7NPg4U-40">
          <mxGeometry relative="1" as="geometry" />
        </mxCell>
        <mxCell id="pF830BbptEh1_A7NPg4U-36" value="" style="ellipse;whiteSpace=wrap;html=1;aspect=fixed;" vertex="1" parent="pF830BbptEh1_A7NPg4U-34">
          <mxGeometry x="130" y="34" width="20" height="20" as="geometry" />
        </mxCell>
        <mxCell id="pF830BbptEh1_A7NPg4U-37" value="" style="edgeStyle=orthogonalEdgeStyle;rounded=0;orthogonalLoop=1;jettySize=auto;html=1;" edge="1" parent="pF830BbptEh1_A7NPg4U-34" source="pF830BbptEh1_A7NPg4U-40" target="pF830BbptEh1_A7NPg4U-45">
          <mxGeometry relative="1" as="geometry" />
        </mxCell>
        <mxCell id="pF830BbptEh1_A7NPg4U-38" value="Callback throws/rejects" style="edgeLabel;html=1;align=center;verticalAlign=middle;resizable=0;points=[];" vertex="1" connectable="0" parent="pF830BbptEh1_A7NPg4U-37">
          <mxGeometry x="-0.5027" y="-3" relative="1" as="geometry">
            <mxPoint x="-22" y="-9" as="offset" />
          </mxGeometry>
        </mxCell>
        <mxCell id="pF830BbptEh1_A7NPg4U-39" value="" style="edgeStyle=orthogonalEdgeStyle;rounded=0;orthogonalLoop=1;jettySize=auto;html=1;" edge="1" parent="pF830BbptEh1_A7NPg4U-34" source="pF830BbptEh1_A7NPg4U-40" target="pF830BbptEh1_A7NPg4U-46">
          <mxGeometry relative="1" as="geometry">
            <mxPoint x="210" y="170" as="targetPoint" />
          </mxGeometry>
        </mxCell>
        <mxCell id="pF830BbptEh1_A7NPg4U-40" value="" style="rhombus;whiteSpace=wrap;html=1;" vertex="1" parent="pF830BbptEh1_A7NPg4U-34">
          <mxGeometry x="122" y="100" width="36" height="36" as="geometry" />
        </mxCell>
        <mxCell id="pF830BbptEh1_A7NPg4U-41" value="" style="group" vertex="1" connectable="0" parent="pF830BbptEh1_A7NPg4U-34">
          <mxGeometry x="140" y="70" width="75.59" height="20" as="geometry" />
        </mxCell>
        <mxCell id="pF830BbptEh1_A7NPg4U-42" value="" style="endArrow=none;dashed=1;html=1;dashPattern=1 3;strokeWidth=2;rounded=0;fillColor=#1ba1e2;strokeColor=#006EAF;" edge="1" parent="pF830BbptEh1_A7NPg4U-41" target="pF830BbptEh1_A7NPg4U-44">
          <mxGeometry width="50" height="50" relative="1" as="geometry">
            <mxPoint y="7" as="sourcePoint" />
            <mxPoint x="10.408534998698883" y="25.200000000000045" as="targetPoint" />
          </mxGeometry>
        </mxCell>
        <mxCell id="pF830BbptEh1_A7NPg4U-43" value="started" style="edgeLabel;html=1;align=center;verticalAlign=middle;resizable=0;points=[];fontSize=12;fontColor=#006EAF;" vertex="1" connectable="0" parent="pF830BbptEh1_A7NPg4U-42">
          <mxGeometry x="0.2113" relative="1" as="geometry">
            <mxPoint x="-4" y="-9" as="offset" />
          </mxGeometry>
        </mxCell>
        <mxCell id="pF830BbptEh1_A7NPg4U-44" value="" style="sketch=0;outlineConnect=0;fontColor=#ffffff;fillColor=#006EAF;strokeColor=#006EAF;dashed=0;verticalLabelPosition=bottom;verticalAlign=top;align=center;html=1;fontSize=12;fontStyle=0;aspect=fixed;pointerEvents=1;shape=mxgraph.aws4.event;" vertex="1" parent="pF830BbptEh1_A7NPg4U-41">
          <mxGeometry x="49.59" y="-6" width="26" height="26" as="geometry" />
        </mxCell>
        <mxCell id="pF830BbptEh1_A7NPg4U-45" value="" style="ellipse;whiteSpace=wrap;html=1;" vertex="1" parent="pF830BbptEh1_A7NPg4U-34">
          <mxGeometry x="20" y="170" width="20" height="20" as="geometry" />
        </mxCell>
        <mxCell id="pF830BbptEh1_A7NPg4U-46" value="" style="ellipse;whiteSpace=wrap;html=1;" vertex="1" parent="pF830BbptEh1_A7NPg4U-34">
          <mxGeometry x="240" y="170" width="20" height="20" as="geometry" />
        </mxCell>
        <mxCell id="pF830BbptEh1_A7NPg4U-47" value="" style="group" vertex="1" connectable="0" parent="pF830BbptEh1_A7NPg4U-34">
          <mxGeometry x="30" y="140" width="70" height="20" as="geometry" />
        </mxCell>
        <mxCell id="pF830BbptEh1_A7NPg4U-48" value="" style="endArrow=none;dashed=1;html=1;dashPattern=1 3;strokeWidth=2;rounded=0;fillColor=#1ba1e2;strokeColor=#006EAF;" edge="1" parent="pF830BbptEh1_A7NPg4U-47" target="pF830BbptEh1_A7NPg4U-50">
          <mxGeometry width="50" height="50" relative="1" as="geometry">
            <mxPoint y="9.710000000000008" as="sourcePoint" />
            <mxPoint x="129" y="9.710000000000008" as="targetPoint" />
          </mxGeometry>
        </mxCell>
        <mxCell id="pF830BbptEh1_A7NPg4U-49" value="rejected" style="edgeLabel;html=1;align=left;verticalAlign=middle;resizable=0;points=[];fontSize=12;fontColor=#006EAF;rotation=0;" vertex="1" connectable="0" parent="pF830BbptEh1_A7NPg4U-48">
          <mxGeometry x="0.2113" relative="1" as="geometry">
            <mxPoint x="-26" y="-12" as="offset" />
          </mxGeometry>
        </mxCell>
        <mxCell id="pF830BbptEh1_A7NPg4U-50" value="" style="sketch=0;outlineConnect=0;fontColor=#ffffff;fillColor=#006EAF;strokeColor=#006EAF;dashed=0;verticalLabelPosition=bottom;verticalAlign=top;align=center;html=1;fontSize=12;fontStyle=0;aspect=fixed;pointerEvents=1;shape=mxgraph.aws4.event;" vertex="1" parent="pF830BbptEh1_A7NPg4U-47">
          <mxGeometry x="50" width="20" height="20" as="geometry" />
        </mxCell>
        <mxCell id="pF830BbptEh1_A7NPg4U-51" value="" style="group" vertex="1" connectable="0" parent="pF830BbptEh1_A7NPg4U-34">
          <mxGeometry x="180" y="140.2" width="70" height="18.80000000000001" as="geometry" />
        </mxCell>
        <mxCell id="pF830BbptEh1_A7NPg4U-52" value="" style="sketch=0;outlineConnect=0;fontColor=#ffffff;fillColor=#006EAF;strokeColor=#006EAF;dashed=0;verticalLabelPosition=bottom;verticalAlign=top;align=center;html=1;fontSize=12;fontStyle=0;aspect=fixed;pointerEvents=1;shape=mxgraph.aws4.event;" vertex="1" parent="pF830BbptEh1_A7NPg4U-51">
          <mxGeometry width="18.799999999999997" height="18.799999999999997" as="geometry" />
        </mxCell>
        <mxCell id="pF830BbptEh1_A7NPg4U-53" value="" style="endArrow=none;dashed=1;html=1;dashPattern=1 3;strokeWidth=2;rounded=0;fillColor=#1ba1e2;strokeColor=#006EAF;" edge="1" parent="pF830BbptEh1_A7NPg4U-51" target="pF830BbptEh1_A7NPg4U-52">
          <mxGeometry width="50" height="50" relative="1" as="geometry">
            <mxPoint x="70" y="8.510000000000048" as="sourcePoint" />
            <mxPoint x="150.83999999999997" y="8.510000000000048" as="targetPoint" />
          </mxGeometry>
        </mxCell>
        <mxCell id="pF830BbptEh1_A7NPg4U-54" value="fulfilled" style="edgeLabel;html=1;align=right;verticalAlign=middle;resizable=0;points=[];fontSize=12;fontColor=#006EAF;rotation=0;" vertex="1" connectable="0" parent="pF830BbptEh1_A7NPg4U-53">
          <mxGeometry x="0.2113" relative="1" as="geometry">
            <mxPoint x="28" y="-12" as="offset" />
          </mxGeometry>
        </mxCell>
        <mxCell id="pF830BbptEh1_A7NPg4U-65" value="Callback returns value" style="edgeLabel;html=1;align=center;verticalAlign=middle;resizable=0;points=[];" vertex="1" connectable="0" parent="pF830BbptEh1_A7NPg4U-34">
          <mxGeometry x="212.99857142857127" y="106.00000000000011" as="geometry" />
        </mxCell>
        <mxCell id="pF830BbptEh1_A7NPg4U-55" value="..." style="text;html=1;strokeColor=none;fillColor=none;align=center;verticalAlign=middle;whiteSpace=wrap;rounded=0;fontSize=40;" vertex="1" parent="1">
          <mxGeometry x="650" y="254" width="60" height="30" as="geometry" />
        </mxCell>
      </root>
    </mxGraphModel>
  </diagram>
</mxfile>
